<?xml version="1.0" encoding="utf-8" standalone="no"?>
<!DOCTYPE svg PUBLIC "-//W3C//DTD SVG 1.1//EN"
  "http://www.w3.org/Graphics/SVG/1.1/DTD/svg11.dtd">
<!-- Created with matplotlib (https://matplotlib.org/) -->
<svg height="359.838125pt" version="1.1" viewBox="0 0 921.034944 359.838125" width="921.034944pt" xmlns="http://www.w3.org/2000/svg" xmlns:xlink="http://www.w3.org/1999/xlink">
 <defs>
  <style type="text/css">
*{stroke-linecap:butt;stroke-linejoin:round;}
  </style>
 </defs>
 <g id="figure_1">
  <g id="patch_1">
   <path d="M 0 359.838125 
L 921.034944 359.838125 
L 921.034944 0 
L 0 0 
z
" style="fill:#ffffff;"/>
  </g>
  <g id="axes_1">
   <g id="patch_2">
    <path d="M 60.217268 299.708571 
L 432.217268 299.708571 
L 432.217268 27.908571 
L 60.217268 27.908571 
z
" style="fill:#ffffff;"/>
   </g>
   <g id="matplotlib.axis_1">
    <g id="xtick_1">
     <g id="line2d_1">
      <defs>
       <path d="M 0 0 
L 0 -4.5 
" id="mefc46c7968" style="stroke:#000000;stroke-width:0.6;"/>
      </defs>
      <g>
       <use style="stroke:#000000;stroke-width:0.6;" x="99.558926" xlink:href="#mefc46c7968" y="299.708571"/>
      </g>
     </g>
     <g id="line2d_2">
      <defs>
       <path d="M 0 0 
L 0 4.5 
" id="m86ede26539" style="stroke:#000000;stroke-width:0.6;"/>
      </defs>
      <g>
       <use style="stroke:#000000;stroke-width:0.6;" x="99.558926" xlink:href="#m86ede26539" y="27.908571"/>
      </g>
     </g>
     <g id="text_1">
      <!-- $\mathdefault{10^{0}}$ -->
      <defs>
       <path d="M 34.703125 0 
L 34.703125 71 
L 28.90625 71 
C 25.796875 60.078125 23.796875 58.578125 10.203125 56.875 
L 10.203125 50.5625 
L 25.90625 50.5625 
L 25.90625 0 
z
" id="TeXGyreHeros-Regular-49"/>
       <path d="M 50.703125 33.890625 
C 50.703125 58.75 42.90625 71 27.5 71 
C 12.203125 71 4.296875 58.546875 4.296875 34.5 
C 4.296875 10.34375 12.296875 -2 27.5 -2 
C 42.5 -2 50.703125 10.34375 50.703125 33.890625 
z
M 41.703125 34.703125 
C 41.703125 14.390625 37.09375 5.296875 27.296875 5.296875 
C 18 5.296875 13.296875 14.796875 13.296875 34.390625 
C 13.296875 54 18 63.1875 27.5 63.1875 
C 37 63.1875 41.703125 53.890625 41.703125 34.703125 
z
" id="TeXGyreHeros-Regular-48"/>
      </defs>
      <g transform="translate(81.611861 320.710916)scale(0.24 -0.24)">
       <use transform="scale(0.996264)" xlink:href="#TeXGyreHeros-Regular-49"/>
       <use transform="translate(55.392255 0)scale(0.996264)" xlink:href="#TeXGyreHeros-Regular-48"/>
       <use transform="translate(110.784509 36.153639)scale(0.697382)" xlink:href="#TeXGyreHeros-Regular-48"/>
      </g>
     </g>
    </g>
    <g id="xtick_2">
     <g id="line2d_3">
      <g>
       <use style="stroke:#000000;stroke-width:0.6;" x="209.084703" xlink:href="#mefc46c7968" y="299.708571"/>
      </g>
     </g>
     <g id="line2d_4">
      <g>
       <use style="stroke:#000000;stroke-width:0.6;" x="209.084703" xlink:href="#m86ede26539" y="27.908571"/>
      </g>
     </g>
     <g id="text_2">
      <!-- $\mathdefault{10^{1}}$ -->
      <g transform="translate(191.137638 320.710916)scale(0.24 -0.24)">
       <use transform="scale(0.996264)" xlink:href="#TeXGyreHeros-Regular-49"/>
       <use transform="translate(55.392255 0)scale(0.996264)" xlink:href="#TeXGyreHeros-Regular-48"/>
       <use transform="translate(110.784509 36.153639)scale(0.697382)" xlink:href="#TeXGyreHeros-Regular-49"/>
      </g>
     </g>
    </g>
    <g id="xtick_3">
     <g id="line2d_5">
      <g>
       <use style="stroke:#000000;stroke-width:0.6;" x="318.61048" xlink:href="#mefc46c7968" y="299.708571"/>
      </g>
     </g>
     <g id="line2d_6">
      <g>
       <use style="stroke:#000000;stroke-width:0.6;" x="318.61048" xlink:href="#m86ede26539" y="27.908571"/>
      </g>
     </g>
     <g id="text_3">
      <!-- $\mathdefault{10^{2}}$ -->
      <defs>
       <path d="M 51.09375 50.171875 
C 51.09375 62.1875 41.796875 71 28.40625 71 
C 13.90625 71 5.5 63.59375 5 46.359375 
L 13.796875 46.359375 
C 14.5 58.28125 19.40625 63.296875 28.09375 63.296875 
C 36.09375 63.296875 42.09375 57.578125 42.09375 49.96875 
C 42.09375 44.359375 38.796875 39.546875 32.5 35.9375 
L 23.296875 30.734375 
C 8.5 22.3125 4.203125 15.609375 3.40625 0 
L 50.59375 0 
L 50.59375 8.6875 
L 13.296875 8.6875 
C 14.203125 14.5 17.40625 18.203125 26.09375 23.328125 
L 36.09375 28.734375 
C 46 34.046875 51.09375 41.453125 51.09375 50.171875 
z
" id="TeXGyreHeros-Regular-50"/>
      </defs>
      <g transform="translate(300.663415 320.710916)scale(0.24 -0.24)">
       <use transform="scale(0.996264)" xlink:href="#TeXGyreHeros-Regular-49"/>
       <use transform="translate(55.392255 0)scale(0.996264)" xlink:href="#TeXGyreHeros-Regular-48"/>
       <use transform="translate(110.784509 36.153639)scale(0.697382)" xlink:href="#TeXGyreHeros-Regular-50"/>
      </g>
     </g>
    </g>
    <g id="xtick_4">
     <g id="line2d_7">
      <g>
       <use style="stroke:#000000;stroke-width:0.6;" x="428.136257" xlink:href="#mefc46c7968" y="299.708571"/>
      </g>
     </g>
     <g id="line2d_8">
      <g>
       <use style="stroke:#000000;stroke-width:0.6;" x="428.136257" xlink:href="#m86ede26539" y="27.908571"/>
      </g>
     </g>
     <g id="text_4">
      <!-- $\mathdefault{10^{3}}$ -->
      <defs>
       <path d="M 50.59375 20.59375 
C 50.59375 29.1875 47.09375 34.1875 38.59375 37.09375 
C 45.203125 39.6875 48.5 44.3125 48.5 51.4375 
C 48.5 63.6875 40.40625 71 26.90625 71 
C 12.59375 71 5 63.1875 4.703125 48.03125 
L 13.5 48.03125 
C 13.703125 58.578125 18 63.296875 27 63.296875 
C 34.796875 63.296875 39.5 58.671875 39.5 51.140625 
C 39.5 43.5 36.203125 40.390625 22.09375 40.390625 
L 22.09375 33 
L 26.90625 33 
C 36.59375 32.5 41.59375 27.890625 41.59375 20 
C 41.59375 11.09375 36.09375 5.796875 26.90625 5.796875 
C 17.296875 5.796875 12.59375 10.59375 12 20.890625 
L 3.203125 20.890625 
C 4.296875 5.09375 12.09375 -2 26.59375 -2 
C 41.203125 -2 50.59375 6.6875 50.59375 20.09375 
z
" id="TeXGyreHeros-Regular-51"/>
      </defs>
      <g transform="translate(410.189192 320.710916)scale(0.24 -0.24)">
       <use transform="scale(0.996264)" xlink:href="#TeXGyreHeros-Regular-49"/>
       <use transform="translate(55.392255 0)scale(0.996264)" xlink:href="#TeXGyreHeros-Regular-48"/>
       <use transform="translate(110.784509 36.153639)scale(0.697382)" xlink:href="#TeXGyreHeros-Regular-51"/>
      </g>
     </g>
    </g>
    <g id="xtick_5">
     <g id="line2d_9">
      <defs>
       <path d="M 0 0 
L 0 -2 
" id="ma89ce33300" style="stroke:#000000;stroke-width:0.6;"/>
      </defs>
      <g>
       <use style="stroke:#000000;stroke-width:0.6;" x="66.588382" xlink:href="#ma89ce33300" y="299.708571"/>
      </g>
     </g>
     <g id="line2d_10">
      <defs>
       <path d="M 0 0 
L 0 2 
" id="m4022d377ed" style="stroke:#000000;stroke-width:0.6;"/>
      </defs>
      <g>
       <use style="stroke:#000000;stroke-width:0.6;" x="66.588382" xlink:href="#m4022d377ed" y="27.908571"/>
      </g>
     </g>
    </g>
    <g id="xtick_6">
     <g id="line2d_11">
      <g>
       <use style="stroke:#000000;stroke-width:0.6;" x="75.260769" xlink:href="#ma89ce33300" y="299.708571"/>
      </g>
     </g>
     <g id="line2d_12">
      <g>
       <use style="stroke:#000000;stroke-width:0.6;" x="75.260769" xlink:href="#m4022d377ed" y="27.908571"/>
      </g>
     </g>
    </g>
    <g id="xtick_7">
     <g id="line2d_13">
      <g>
       <use style="stroke:#000000;stroke-width:0.6;" x="82.593168" xlink:href="#ma89ce33300" y="299.708571"/>
      </g>
     </g>
     <g id="line2d_14">
      <g>
       <use style="stroke:#000000;stroke-width:0.6;" x="82.593168" xlink:href="#m4022d377ed" y="27.908571"/>
      </g>
     </g>
    </g>
    <g id="xtick_8">
     <g id="line2d_15">
      <g>
       <use style="stroke:#000000;stroke-width:0.6;" x="88.944781" xlink:href="#ma89ce33300" y="299.708571"/>
      </g>
     </g>
     <g id="line2d_16">
      <g>
       <use style="stroke:#000000;stroke-width:0.6;" x="88.944781" xlink:href="#m4022d377ed" y="27.908571"/>
      </g>
     </g>
    </g>
    <g id="xtick_9">
     <g id="line2d_17">
      <g>
       <use style="stroke:#000000;stroke-width:0.6;" x="94.547301" xlink:href="#ma89ce33300" y="299.708571"/>
      </g>
     </g>
     <g id="line2d_18">
      <g>
       <use style="stroke:#000000;stroke-width:0.6;" x="94.547301" xlink:href="#m4022d377ed" y="27.908571"/>
      </g>
     </g>
    </g>
    <g id="xtick_10">
     <g id="line2d_19">
      <g>
       <use style="stroke:#000000;stroke-width:0.6;" x="132.52947" xlink:href="#ma89ce33300" y="299.708571"/>
      </g>
     </g>
     <g id="line2d_20">
      <g>
       <use style="stroke:#000000;stroke-width:0.6;" x="132.52947" xlink:href="#m4022d377ed" y="27.908571"/>
      </g>
     </g>
    </g>
    <g id="xtick_11">
     <g id="line2d_21">
      <g>
       <use style="stroke:#000000;stroke-width:0.6;" x="151.816002" xlink:href="#ma89ce33300" y="299.708571"/>
      </g>
     </g>
     <g id="line2d_22">
      <g>
       <use style="stroke:#000000;stroke-width:0.6;" x="151.816002" xlink:href="#m4022d377ed" y="27.908571"/>
      </g>
     </g>
    </g>
    <g id="xtick_12">
     <g id="line2d_23">
      <g>
       <use style="stroke:#000000;stroke-width:0.6;" x="165.500014" xlink:href="#ma89ce33300" y="299.708571"/>
      </g>
     </g>
     <g id="line2d_24">
      <g>
       <use style="stroke:#000000;stroke-width:0.6;" x="165.500014" xlink:href="#m4022d377ed" y="27.908571"/>
      </g>
     </g>
    </g>
    <g id="xtick_13">
     <g id="line2d_25">
      <g>
       <use style="stroke:#000000;stroke-width:0.6;" x="176.114159" xlink:href="#ma89ce33300" y="299.708571"/>
      </g>
     </g>
     <g id="line2d_26">
      <g>
       <use style="stroke:#000000;stroke-width:0.6;" x="176.114159" xlink:href="#m4022d377ed" y="27.908571"/>
      </g>
     </g>
    </g>
    <g id="xtick_14">
     <g id="line2d_27">
      <g>
       <use style="stroke:#000000;stroke-width:0.6;" x="184.786546" xlink:href="#ma89ce33300" y="299.708571"/>
      </g>
     </g>
     <g id="line2d_28">
      <g>
       <use style="stroke:#000000;stroke-width:0.6;" x="184.786546" xlink:href="#m4022d377ed" y="27.908571"/>
      </g>
     </g>
    </g>
    <g id="xtick_15">
     <g id="line2d_29">
      <g>
       <use style="stroke:#000000;stroke-width:0.6;" x="192.118945" xlink:href="#ma89ce33300" y="299.708571"/>
      </g>
     </g>
     <g id="line2d_30">
      <g>
       <use style="stroke:#000000;stroke-width:0.6;" x="192.118945" xlink:href="#m4022d377ed" y="27.908571"/>
      </g>
     </g>
    </g>
    <g id="xtick_16">
     <g id="line2d_31">
      <g>
       <use style="stroke:#000000;stroke-width:0.6;" x="198.470558" xlink:href="#ma89ce33300" y="299.708571"/>
      </g>
     </g>
     <g id="line2d_32">
      <g>
       <use style="stroke:#000000;stroke-width:0.6;" x="198.470558" xlink:href="#m4022d377ed" y="27.908571"/>
      </g>
     </g>
    </g>
    <g id="xtick_17">
     <g id="line2d_33">
      <g>
       <use style="stroke:#000000;stroke-width:0.6;" x="204.073078" xlink:href="#ma89ce33300" y="299.708571"/>
      </g>
     </g>
     <g id="line2d_34">
      <g>
       <use style="stroke:#000000;stroke-width:0.6;" x="204.073078" xlink:href="#m4022d377ed" y="27.908571"/>
      </g>
     </g>
    </g>
    <g id="xtick_18">
     <g id="line2d_35">
      <g>
       <use style="stroke:#000000;stroke-width:0.6;" x="242.055247" xlink:href="#ma89ce33300" y="299.708571"/>
      </g>
     </g>
     <g id="line2d_36">
      <g>
       <use style="stroke:#000000;stroke-width:0.6;" x="242.055247" xlink:href="#m4022d377ed" y="27.908571"/>
      </g>
     </g>
    </g>
    <g id="xtick_19">
     <g id="line2d_37">
      <g>
       <use style="stroke:#000000;stroke-width:0.6;" x="261.341779" xlink:href="#ma89ce33300" y="299.708571"/>
      </g>
     </g>
     <g id="line2d_38">
      <g>
       <use style="stroke:#000000;stroke-width:0.6;" x="261.341779" xlink:href="#m4022d377ed" y="27.908571"/>
      </g>
     </g>
    </g>
    <g id="xtick_20">
     <g id="line2d_39">
      <g>
       <use style="stroke:#000000;stroke-width:0.6;" x="275.025791" xlink:href="#ma89ce33300" y="299.708571"/>
      </g>
     </g>
     <g id="line2d_40">
      <g>
       <use style="stroke:#000000;stroke-width:0.6;" x="275.025791" xlink:href="#m4022d377ed" y="27.908571"/>
      </g>
     </g>
    </g>
    <g id="xtick_21">
     <g id="line2d_41">
      <g>
       <use style="stroke:#000000;stroke-width:0.6;" x="285.639936" xlink:href="#ma89ce33300" y="299.708571"/>
      </g>
     </g>
     <g id="line2d_42">
      <g>
       <use style="stroke:#000000;stroke-width:0.6;" x="285.639936" xlink:href="#m4022d377ed" y="27.908571"/>
      </g>
     </g>
    </g>
    <g id="xtick_22">
     <g id="line2d_43">
      <g>
       <use style="stroke:#000000;stroke-width:0.6;" x="294.312323" xlink:href="#ma89ce33300" y="299.708571"/>
      </g>
     </g>
     <g id="line2d_44">
      <g>
       <use style="stroke:#000000;stroke-width:0.6;" x="294.312323" xlink:href="#m4022d377ed" y="27.908571"/>
      </g>
     </g>
    </g>
    <g id="xtick_23">
     <g id="line2d_45">
      <g>
       <use style="stroke:#000000;stroke-width:0.6;" x="301.644722" xlink:href="#ma89ce33300" y="299.708571"/>
      </g>
     </g>
     <g id="line2d_46">
      <g>
       <use style="stroke:#000000;stroke-width:0.6;" x="301.644722" xlink:href="#m4022d377ed" y="27.908571"/>
      </g>
     </g>
    </g>
    <g id="xtick_24">
     <g id="line2d_47">
      <g>
       <use style="stroke:#000000;stroke-width:0.6;" x="307.996335" xlink:href="#ma89ce33300" y="299.708571"/>
      </g>
     </g>
     <g id="line2d_48">
      <g>
       <use style="stroke:#000000;stroke-width:0.6;" x="307.996335" xlink:href="#m4022d377ed" y="27.908571"/>
      </g>
     </g>
    </g>
    <g id="xtick_25">
     <g id="line2d_49">
      <g>
       <use style="stroke:#000000;stroke-width:0.6;" x="313.598855" xlink:href="#ma89ce33300" y="299.708571"/>
      </g>
     </g>
     <g id="line2d_50">
      <g>
       <use style="stroke:#000000;stroke-width:0.6;" x="313.598855" xlink:href="#m4022d377ed" y="27.908571"/>
      </g>
     </g>
    </g>
    <g id="xtick_26">
     <g id="line2d_51">
      <g>
       <use style="stroke:#000000;stroke-width:0.6;" x="351.581024" xlink:href="#ma89ce33300" y="299.708571"/>
      </g>
     </g>
     <g id="line2d_52">
      <g>
       <use style="stroke:#000000;stroke-width:0.6;" x="351.581024" xlink:href="#m4022d377ed" y="27.908571"/>
      </g>
     </g>
    </g>
    <g id="xtick_27">
     <g id="line2d_53">
      <g>
       <use style="stroke:#000000;stroke-width:0.6;" x="370.867556" xlink:href="#ma89ce33300" y="299.708571"/>
      </g>
     </g>
     <g id="line2d_54">
      <g>
       <use style="stroke:#000000;stroke-width:0.6;" x="370.867556" xlink:href="#m4022d377ed" y="27.908571"/>
      </g>
     </g>
    </g>
    <g id="xtick_28">
     <g id="line2d_55">
      <g>
       <use style="stroke:#000000;stroke-width:0.6;" x="384.551568" xlink:href="#ma89ce33300" y="299.708571"/>
      </g>
     </g>
     <g id="line2d_56">
      <g>
       <use style="stroke:#000000;stroke-width:0.6;" x="384.551568" xlink:href="#m4022d377ed" y="27.908571"/>
      </g>
     </g>
    </g>
    <g id="xtick_29">
     <g id="line2d_57">
      <g>
       <use style="stroke:#000000;stroke-width:0.6;" x="395.165713" xlink:href="#ma89ce33300" y="299.708571"/>
      </g>
     </g>
     <g id="line2d_58">
      <g>
       <use style="stroke:#000000;stroke-width:0.6;" x="395.165713" xlink:href="#m4022d377ed" y="27.908571"/>
      </g>
     </g>
    </g>
    <g id="xtick_30">
     <g id="line2d_59">
      <g>
       <use style="stroke:#000000;stroke-width:0.6;" x="403.8381" xlink:href="#ma89ce33300" y="299.708571"/>
      </g>
     </g>
     <g id="line2d_60">
      <g>
       <use style="stroke:#000000;stroke-width:0.6;" x="403.8381" xlink:href="#m4022d377ed" y="27.908571"/>
      </g>
     </g>
    </g>
    <g id="xtick_31">
     <g id="line2d_61">
      <g>
       <use style="stroke:#000000;stroke-width:0.6;" x="411.170499" xlink:href="#ma89ce33300" y="299.708571"/>
      </g>
     </g>
     <g id="line2d_62">
      <g>
       <use style="stroke:#000000;stroke-width:0.6;" x="411.170499" xlink:href="#m4022d377ed" y="27.908571"/>
      </g>
     </g>
    </g>
    <g id="xtick_32">
     <g id="line2d_63">
      <g>
       <use style="stroke:#000000;stroke-width:0.6;" x="417.522113" xlink:href="#ma89ce33300" y="299.708571"/>
      </g>
     </g>
     <g id="line2d_64">
      <g>
       <use style="stroke:#000000;stroke-width:0.6;" x="417.522113" xlink:href="#m4022d377ed" y="27.908571"/>
      </g>
     </g>
    </g>
    <g id="xtick_33">
     <g id="line2d_65">
      <g>
       <use style="stroke:#000000;stroke-width:0.6;" x="423.124632" xlink:href="#ma89ce33300" y="299.708571"/>
      </g>
     </g>
     <g id="line2d_66">
      <g>
       <use style="stroke:#000000;stroke-width:0.6;" x="423.124632" xlink:href="#m4022d377ed" y="27.908571"/>
      </g>
     </g>
    </g>
    <g id="text_5">
     <!-- Concentration, [mg/ml] -->
     <defs>
      <path d="M 67.703125 26.5625 
L 58.09375 26.5625 
C 55.90625 12.640625 50.09375 6.1875 37.796875 6.1875 
C 23.296875 6.1875 14.09375 17.390625 14.09375 35.734375 
C 14.09375 54.59375 22.90625 66.796875 37 66.796875 
C 48.40625 66.796875 54.40625 61.65625 56.703125 50.453125 
L 66.203125 50.453125 
C 63.296875 66.59375 54.09375 75 38.09375 75 
C 16 75 4.796875 57.109375 4.796875 35.640625 
C 4.796875 14.15625 16.296875 -2 37.703125 -2 
C 55.5 -2 65.5 7.40625 67.703125 26.5625 
z
" id="TeXGyreHeros-Regular-67"/>
      <path d="M 51 25.59375 
C 51 43.953125 42.296875 54 27.203125 54 
C 12.5 54 3.59375 43.859375 3.59375 26 
C 3.59375 8.125 12.40625 -2 27.296875 -2 
C 42 -2 51 8.125 51 25.59375 
z
M 42.296875 25.6875 
C 42.296875 13.203125 36.5 5.6875 27.296875 5.6875 
C 18 5.6875 12.296875 13.109375 12.296875 26 
C 12.296875 38.78125 18 46.296875 27.296875 46.296875 
C 36.703125 46.296875 42.296875 38.890625 42.296875 25.6875 
z
" id="TeXGyreHeros-Regular-111"/>
      <path d="M 48.703125 0.09375 
L 48.703125 39.6875 
C 48.703125 48.390625 42.203125 54 32.09375 54 
C 24.296875 54 19.296875 50.984375 14.703125 43.6875 
L 14.703125 52 
L 7 52 
L 7 0 
L 15.296875 0 
L 15.296875 28.640625 
C 15.296875 39.25 21.09375 46.1875 29.59375 46.1875 
C 36.203125 46.1875 40.40625 42.21875 40.40625 35.984375 
L 40.40625 0 
z
" id="TeXGyreHeros-Regular-110"/>
      <path d="M 47.703125 17.671875 
L 39.296875 17.671875 
C 37.90625 9.140625 33.59375 5.6875 26.5 5.6875 
C 17.296875 5.6875 11.796875 12.90625 11.796875 25.484375 
C 11.796875 38.78125 17.203125 46.296875 26.296875 46.296875 
C 33.296875 46.296875 37.703125 42.125 38.703125 34.71875 
L 47.09375 34.71875 
C 46.09375 47.6875 38.09375 54 26.40625 54 
C 12.296875 54 3.09375 43.140625 3.09375 25.484375 
C 3.09375 8.328125 12.09375 -2 26.296875 -2 
C 38.796875 -2 46.703125 5.5 47.703125 17.671875 
z
" id="TeXGyreHeros-Regular-99"/>
      <path d="M 51.296875 24 
C 51.296875 31.59375 50.703125 36.359375 49.203125 40.234375 
C 45.796875 48.796875 37.796875 54 28 54 
C 13.40625 54 4 43.21875 4 26.09375 
C 4 8.296875 13.09375 -2 27.796875 -2 
C 39.796875 -2 48.09375 4.796875 50.203125 15.78125 
L 41.796875 15.78125 
C 39.5 8.609375 34.796875 5.6875 28.09375 5.6875 
C 19.40625 5.6875 12.90625 11.515625 12.703125 24 
z
M 42.40625 31.390625 
C 42.40625 31.390625 42.40625 30.984375 42.296875 30.796875 
L 12.90625 30.796875 
C 13.59375 40.03125 19.5 46.296875 27.90625 46.296875 
C 36.09375 46.296875 42.40625 39.53125 42.40625 31.390625 
z
" id="TeXGyreHeros-Regular-101"/>
      <path d="M 25.40625 -0.3125 
L 25.40625 6.6875 
C 24.296875 6.390625 23 6.296875 21.40625 6.296875 
C 17.796875 6.296875 16.796875 7.296875 16.796875 10.984375 
L 16.796875 45.1875 
L 25.40625 45.1875 
L 25.40625 52 
L 16.796875 52 
L 16.796875 66 
L 8.5 66 
L 8.5 52 
L 1.40625 52 
L 1.40625 45.1875 
L 8.5 45.1875 
L 8.5 7.296875 
C 8.5 2 12.09375 -1 18.59375 -1 
C 20.59375 -1 22.59375 -0.8125 25.40625 -0.3125 
z
" id="TeXGyreHeros-Regular-116"/>
      <path d="M 32.09375 44.75 
L 32.09375 53.1875 
C 30.703125 53.390625 30 53.5 28.90625 53.5 
C 23.5 53.5 19.40625 50.3125 14.59375 42.5625 
L 14.59375 52 
L 7 52 
L 7 0 
L 15.296875 0 
L 15.296875 26.984375 
C 15.296875 38.703125 19.203125 44.546875 32.09375 44.75 
z
" id="TeXGyreHeros-Regular-114"/>
      <path d="M 53.5 -0.3125 
L 53.5 6 
C 52.59375 5.796875 52.203125 5.796875 51.703125 5.796875 
C 48.796875 5.796875 47.203125 7.328125 47.203125 9.96875 
L 47.203125 39.59375 
C 47.203125 48.984375 40.40625 54 27.5 54 
C 14.796875 54 7 49.09375 6.5 36.859375 
L 14.90625 36.859375 
C 15.59375 43.34375 19.40625 46.296875 27.203125 46.296875 
C 34.703125 46.296875 38.90625 43.453125 38.90625 38.375 
L 38.90625 36.140625 
C 38.90625 32.59375 36.796875 31.0625 30.203125 30.265625 
C 18.40625 28.734375 16.59375 28.328125 13.40625 27.015625 
C 7.296875 24.46875 4.203125 19.703125 4.203125 13.203125 
C 4.203125 3.59375 10.796875 -2 21.40625 -2 
C 28.09375 -2 34.59375 0.796875 39.203125 5.703125 
C 40.09375 1.6875 43.703125 -1.203125 47.796875 -1.203125 
C 49.5 -1.203125 50.796875 -1 53.5 -0.3125 
z
M 38.90625 17.78125 
C 38.90625 10.15625 31.296875 5.296875 23.203125 5.296875 
C 16.703125 5.296875 12.90625 7.625 12.90625 13.40625 
C 12.90625 19 16.59375 21.421875 25.5 22.75 
C 34.296875 23.96875 36.09375 24.375 38.90625 25.6875 
z
" id="TeXGyreHeros-Regular-97"/>
      <path d="M 15.296875 0 
L 15.296875 52 
L 7 52 
L 7 0 
z
M 16.40625 60.59375 
L 16.40625 71 
L 6 71 
L 6 60.59375 
z
" id="TeXGyreHeros-Regular-105"/>
      <path d="M 19.203125 -1.609375 
L 19.203125 10.390625 
L 8.703125 10.390625 
L 8.703125 0 
L 14.703125 0 
L 14.703125 -1.8125 
C 14.703125 -8.703125 13.40625 -10.703125 8.703125 -10.90625 
L 8.703125 -14.703125 
C 15.703125 -14.703125 19.203125 -10.203125 19.203125 -1.609375 
z
" id="TeXGyreHeros-Regular-44"/>
      <path d="M 25 -21.203125 
L 25 -14 
L 14.703125 -14 
L 14.703125 65.796875 
L 25 65.796875 
L 25 73 
L 6.40625 73 
L 6.40625 -21.203125 
z
" id="TeXGyreHeros-Regular-91"/>
      <path d="M 76 0.09375 
L 76 39.390625 
C 76 48.796875 70.796875 54 61 54 
C 54 54 49.796875 51.890625 44.90625 45.984375 
C 41.796875 51.59375 37.59375 54 30.796875 54 
C 23.796875 54 19.203125 51.390625 14.703125 45.09375 
L 14.703125 52 
L 7.09375 52 
L 7.09375 0 
L 15.40625 0 
L 15.40625 32.609375 
C 15.40625 40.140625 20.90625 46.1875 27.703125 46.1875 
C 33.90625 46.1875 37.40625 42.421875 37.40625 35.78125 
L 37.40625 0 
L 45.703125 0 
L 45.703125 32.609375 
C 45.703125 40.140625 51.296875 46.1875 58.09375 46.1875 
C 64.203125 46.1875 67.703125 42.328125 67.703125 35.78125 
L 67.703125 0 
z
" id="TeXGyreHeros-Regular-109"/>
      <path d="M 48.90625 8.1875 
L 48.90625 52 
L 41.203125 52 
L 41.203125 44.390625 
C 37 51.09375 31.90625 54 25.203125 54 
C 11.90625 54 2.90625 42.734375 2.90625 25.484375 
C 2.90625 8.734375 12.203125 -2 24.5 -2 
C 31.09375 -2 35.703125 0.796875 41.203125 7.421875 
L 41.203125 3.890625 
C 41.203125 -9.828125 35.5 -15 25.796875 -15 
C 19.203125 -15 14.09375 -12.65625 13.09375 -6.40625 
L 4.59375 -6.40625 
C 5.5 -16.109375 13.203125 -22.015625 25.5 -22.015625 
C 41.90625 -22.015625 48.90625 -14.71875 48.90625 8.125 
z
M 40.40625 25.6875 
C 40.40625 13 35 5.6875 26.203125 5.6875 
C 17.09375 5.6875 11.59375 13.109375 11.59375 26 
C 11.59375 38.78125 17.203125 46.296875 26.09375 46.296875 
C 35.09375 46.296875 40.40625 38.578125 40.40625 25.6875 
z
" id="TeXGyreHeros-Regular-103"/>
      <path d="M 28.40625 73 
L 22.90625 73 
L -0.796875 -2 
L 4.703125 -2 
z
" id="TeXGyreHeros-Regular-47"/>
      <path d="M 15.09375 0 
L 15.09375 73 
L 6.796875 73 
L 6.796875 0 
z
" id="TeXGyreHeros-Regular-108"/>
      <path d="M 20.90625 -21.203125 
L 20.90625 73 
L 2.296875 73 
L 2.296875 65.796875 
L 12.59375 65.796875 
L 12.59375 -14 
L 2.296875 -14 
L 2.296875 -21.203125 
z
" id="TeXGyreHeros-Regular-93"/>
     </defs>
     <g transform="translate(146.052906 344.508638)scale(0.2 -0.2)">
      <use transform="scale(0.996264)" xlink:href="#TeXGyreHeros-Regular-67"/>
      <use transform="translate(71.930274 0)scale(0.996264)" xlink:href="#TeXGyreHeros-Regular-111"/>
      <use transform="translate(127.322528 0)scale(0.996264)" xlink:href="#TeXGyreHeros-Regular-110"/>
      <use transform="translate(182.714783 0)scale(0.996264)" xlink:href="#TeXGyreHeros-Regular-99"/>
      <use transform="translate(232.527983 0)scale(0.996264)" xlink:href="#TeXGyreHeros-Regular-101"/>
      <use transform="translate(287.920238 0)scale(0.996264)" xlink:href="#TeXGyreHeros-Regular-110"/>
      <use transform="translate(343.312493 0)scale(0.996264)" xlink:href="#TeXGyreHeros-Regular-116"/>
      <use transform="translate(371.00862 0)scale(0.996264)" xlink:href="#TeXGyreHeros-Regular-114"/>
      <use transform="translate(403.686083 0)scale(0.996264)" xlink:href="#TeXGyreHeros-Regular-97"/>
      <use transform="translate(459.078337 0)scale(0.996264)" xlink:href="#TeXGyreHeros-Regular-116"/>
      <use transform="translate(486.774465 0)scale(0.996264)" xlink:href="#TeXGyreHeros-Regular-105"/>
      <use transform="translate(508.891538 0)scale(0.996264)" xlink:href="#TeXGyreHeros-Regular-111"/>
      <use transform="translate(564.283792 0)scale(0.996264)" xlink:href="#TeXGyreHeros-Regular-110"/>
      <use transform="translate(619.676047 0)scale(0.996264)" xlink:href="#TeXGyreHeros-Regular-44"/>
      <use transform="translate(675.068302 0)scale(0.996264)" xlink:href="#TeXGyreHeros-Regular-91"/>
      <use transform="translate(702.764429 0)scale(0.996264)" xlink:href="#TeXGyreHeros-Regular-109"/>
      <use transform="translate(785.753239 0)scale(0.996264)" xlink:href="#TeXGyreHeros-Regular-103"/>
      <use transform="translate(841.145494 0)scale(0.996264)" xlink:href="#TeXGyreHeros-Regular-47"/>
      <use transform="translate(868.841621 0)scale(0.996264)" xlink:href="#TeXGyreHeros-Regular-109"/>
      <use transform="translate(951.830431 0)scale(0.996264)" xlink:href="#TeXGyreHeros-Regular-108"/>
      <use transform="translate(973.947505 0)scale(0.996264)" xlink:href="#TeXGyreHeros-Regular-93"/>
     </g>
    </g>
   </g>
   <g id="matplotlib.axis_2">
    <g id="ytick_1">
     <g id="line2d_67">
      <defs>
       <path d="M 0 0 
L 5 0 
" id="m606eac8288" style="stroke:#000000;stroke-width:0.6;"/>
      </defs>
      <g>
       <use style="stroke:#000000;stroke-width:0.6;" x="60.217268" xlink:href="#m606eac8288" y="290.246395"/>
      </g>
     </g>
     <g id="line2d_68">
      <defs>
       <path d="M 0 0 
L -5 0 
" id="m644636d186" style="stroke:#000000;stroke-width:0.6;"/>
      </defs>
      <g>
       <use style="stroke:#000000;stroke-width:0.6;" x="432.217268" xlink:href="#m644636d186" y="290.246395"/>
      </g>
     </g>
     <g id="text_6">
      <!-- $\mathdefault{20}$ -->
      <g transform="translate(30.128986 298.997567)scale(0.24 -0.24)">
       <use transform="scale(0.996264)" xlink:href="#TeXGyreHeros-Regular-50"/>
       <use transform="translate(55.392255 0)scale(0.996264)" xlink:href="#TeXGyreHeros-Regular-48"/>
      </g>
     </g>
    </g>
    <g id="ytick_2">
     <g id="line2d_69">
      <g>
       <use style="stroke:#000000;stroke-width:0.6;" x="60.217268" xlink:href="#m606eac8288" y="207.607295"/>
      </g>
     </g>
     <g id="line2d_70">
      <g>
       <use style="stroke:#000000;stroke-width:0.6;" x="432.217268" xlink:href="#m644636d186" y="207.607295"/>
      </g>
     </g>
     <g id="text_7">
      <!-- $\mathdefault{30}$ -->
      <g transform="translate(30.128986 216.358467)scale(0.24 -0.24)">
       <use transform="scale(0.996264)" xlink:href="#TeXGyreHeros-Regular-51"/>
       <use transform="translate(55.392255 0)scale(0.996264)" xlink:href="#TeXGyreHeros-Regular-48"/>
      </g>
     </g>
    </g>
    <g id="ytick_3">
     <g id="line2d_71">
      <g>
       <use style="stroke:#000000;stroke-width:0.6;" x="60.217268" xlink:href="#m606eac8288" y="124.968194"/>
      </g>
     </g>
     <g id="line2d_72">
      <g>
       <use style="stroke:#000000;stroke-width:0.6;" x="432.217268" xlink:href="#m644636d186" y="124.968194"/>
      </g>
     </g>
     <g id="text_8">
      <!-- $\mathdefault{40}$ -->
      <defs>
       <path d="M 52 17 
L 52 24.890625 
L 41.5 24.890625 
L 41.5 71 
L 35 71 
L 2.796875 26.296875 
L 2.796875 17 
L 32.703125 17 
L 32.703125 0 
L 41.5 0 
L 41.5 17 
z
M 32.703125 24.890625 
L 10.5 24.890625 
L 32.703125 55.953125 
z
" id="TeXGyreHeros-Regular-52"/>
      </defs>
      <g transform="translate(30.128986 133.719367)scale(0.24 -0.24)">
       <use transform="scale(0.996264)" xlink:href="#TeXGyreHeros-Regular-52"/>
       <use transform="translate(55.392255 0)scale(0.996264)" xlink:href="#TeXGyreHeros-Regular-48"/>
      </g>
     </g>
    </g>
    <g id="ytick_4">
     <g id="line2d_73">
      <g>
       <use style="stroke:#000000;stroke-width:0.6;" x="60.217268" xlink:href="#m606eac8288" y="42.329094"/>
      </g>
     </g>
     <g id="line2d_74">
      <g>
       <use style="stroke:#000000;stroke-width:0.6;" x="432.217268" xlink:href="#m644636d186" y="42.329094"/>
      </g>
     </g>
     <g id="text_9">
      <!-- $\mathdefault{50}$ -->
      <defs>
       <path d="M 51.296875 23.40625 
C 51.296875 37.75 42 47 28.40625 47 
C 23.40625 47 19.40625 45.6875 15.296875 42.6875 
L 18.09375 61.296875 
L 47.59375 61.296875 
L 47.59375 70 
L 11 70 
L 5.703125 32.421875 
L 13.796875 32.421875 
C 17.90625 37.453125 21.296875 39.1875 26.796875 39.1875 
C 36.296875 39.1875 42.296875 32.9375 42.296875 22.1875 
C 42.296875 11.734375 36.40625 5.796875 26.796875 5.796875 
C 19.09375 5.796875 14.40625 9.78125 12.296875 17.984375 
L 3.5 17.984375 
C 6.40625 3.59375 14.40625 -2 27 -2 
C 41.296875 -2 51.296875 8.046875 51.296875 23.40625 
z
" id="TeXGyreHeros-Regular-53"/>
      </defs>
      <g transform="translate(30.128986 51.080267)scale(0.24 -0.24)">
       <use transform="scale(0.996264)" xlink:href="#TeXGyreHeros-Regular-53"/>
       <use transform="translate(55.392255 0)scale(0.996264)" xlink:href="#TeXGyreHeros-Regular-48"/>
      </g>
     </g>
    </g>
    <g id="ytick_5">
     <g id="line2d_75">
      <defs>
       <path d="M 0 0 
L 2 0 
" id="ma1a35588f8" style="stroke:#000000;stroke-width:0.6;"/>
      </defs>
      <g>
       <use style="stroke:#000000;stroke-width:0.6;" x="60.217268" xlink:href="#ma1a35588f8" y="273.718575"/>
      </g>
     </g>
     <g id="line2d_76">
      <defs>
       <path d="M 0 0 
L -2 0 
" id="m6c6b216ef1" style="stroke:#000000;stroke-width:0.6;"/>
      </defs>
      <g>
       <use style="stroke:#000000;stroke-width:0.6;" x="432.217268" xlink:href="#m6c6b216ef1" y="273.718575"/>
      </g>
     </g>
    </g>
    <g id="ytick_6">
     <g id="line2d_77">
      <g>
       <use style="stroke:#000000;stroke-width:0.6;" x="60.217268" xlink:href="#ma1a35588f8" y="257.190755"/>
      </g>
     </g>
     <g id="line2d_78">
      <g>
       <use style="stroke:#000000;stroke-width:0.6;" x="432.217268" xlink:href="#m6c6b216ef1" y="257.190755"/>
      </g>
     </g>
    </g>
    <g id="ytick_7">
     <g id="line2d_79">
      <g>
       <use style="stroke:#000000;stroke-width:0.6;" x="60.217268" xlink:href="#ma1a35588f8" y="240.662935"/>
      </g>
     </g>
     <g id="line2d_80">
      <g>
       <use style="stroke:#000000;stroke-width:0.6;" x="432.217268" xlink:href="#m6c6b216ef1" y="240.662935"/>
      </g>
     </g>
    </g>
    <g id="ytick_8">
     <g id="line2d_81">
      <g>
       <use style="stroke:#000000;stroke-width:0.6;" x="60.217268" xlink:href="#ma1a35588f8" y="224.135115"/>
      </g>
     </g>
     <g id="line2d_82">
      <g>
       <use style="stroke:#000000;stroke-width:0.6;" x="432.217268" xlink:href="#m6c6b216ef1" y="224.135115"/>
      </g>
     </g>
    </g>
    <g id="ytick_9">
     <g id="line2d_83">
      <g>
       <use style="stroke:#000000;stroke-width:0.6;" x="60.217268" xlink:href="#ma1a35588f8" y="191.079475"/>
      </g>
     </g>
     <g id="line2d_84">
      <g>
       <use style="stroke:#000000;stroke-width:0.6;" x="432.217268" xlink:href="#m6c6b216ef1" y="191.079475"/>
      </g>
     </g>
    </g>
    <g id="ytick_10">
     <g id="line2d_85">
      <g>
       <use style="stroke:#000000;stroke-width:0.6;" x="60.217268" xlink:href="#ma1a35588f8" y="174.551654"/>
      </g>
     </g>
     <g id="line2d_86">
      <g>
       <use style="stroke:#000000;stroke-width:0.6;" x="432.217268" xlink:href="#m6c6b216ef1" y="174.551654"/>
      </g>
     </g>
    </g>
    <g id="ytick_11">
     <g id="line2d_87">
      <g>
       <use style="stroke:#000000;stroke-width:0.6;" x="60.217268" xlink:href="#ma1a35588f8" y="158.023834"/>
      </g>
     </g>
     <g id="line2d_88">
      <g>
       <use style="stroke:#000000;stroke-width:0.6;" x="432.217268" xlink:href="#m6c6b216ef1" y="158.023834"/>
      </g>
     </g>
    </g>
    <g id="ytick_12">
     <g id="line2d_89">
      <g>
       <use style="stroke:#000000;stroke-width:0.6;" x="60.217268" xlink:href="#ma1a35588f8" y="141.496014"/>
      </g>
     </g>
     <g id="line2d_90">
      <g>
       <use style="stroke:#000000;stroke-width:0.6;" x="432.217268" xlink:href="#m6c6b216ef1" y="141.496014"/>
      </g>
     </g>
    </g>
    <g id="ytick_13">
     <g id="line2d_91">
      <g>
       <use style="stroke:#000000;stroke-width:0.6;" x="60.217268" xlink:href="#ma1a35588f8" y="108.440374"/>
      </g>
     </g>
     <g id="line2d_92">
      <g>
       <use style="stroke:#000000;stroke-width:0.6;" x="432.217268" xlink:href="#m6c6b216ef1" y="108.440374"/>
      </g>
     </g>
    </g>
    <g id="ytick_14">
     <g id="line2d_93">
      <g>
       <use style="stroke:#000000;stroke-width:0.6;" x="60.217268" xlink:href="#ma1a35588f8" y="91.912554"/>
      </g>
     </g>
     <g id="line2d_94">
      <g>
       <use style="stroke:#000000;stroke-width:0.6;" x="432.217268" xlink:href="#m6c6b216ef1" y="91.912554"/>
      </g>
     </g>
    </g>
    <g id="ytick_15">
     <g id="line2d_95">
      <g>
       <use style="stroke:#000000;stroke-width:0.6;" x="60.217268" xlink:href="#ma1a35588f8" y="75.384734"/>
      </g>
     </g>
     <g id="line2d_96">
      <g>
       <use style="stroke:#000000;stroke-width:0.6;" x="432.217268" xlink:href="#m6c6b216ef1" y="75.384734"/>
      </g>
     </g>
    </g>
    <g id="ytick_16">
     <g id="line2d_97">
      <g>
       <use style="stroke:#000000;stroke-width:0.6;" x="60.217268" xlink:href="#ma1a35588f8" y="58.856914"/>
      </g>
     </g>
     <g id="line2d_98">
      <g>
       <use style="stroke:#000000;stroke-width:0.6;" x="432.217268" xlink:href="#m6c6b216ef1" y="58.856914"/>
      </g>
     </g>
    </g>
    <g id="text_10">
     <!-- Temperature, [$^\circ$C] -->
     <defs>
      <path d="M 59.296875 64.796875 
L 59.296875 73 
L 2.09375 73 
L 2.09375 64.796875 
L 26.09375 64.796875 
L 26.09375 0 
L 35.40625 0 
L 35.40625 64.796875 
z
" id="TeXGyreHeros-Regular-84"/>
      <path d="M 52.296875 25.796875 
C 52.296875 43.390625 43.703125 54 29.796875 54 
C 22.703125 54 17 50.796875 13.09375 44.59375 
L 13.09375 52 
L 5.5 52 
L 5.5 -22 
L 13.796875 -22 
L 13.796875 5.796875 
C 18.203125 0.390625 23.09375 -2 29.90625 -2 
C 43.40625 -2 52.296875 8.5 52.296875 25.234375 
z
M 43.59375 25.4375 
C 43.59375 13.515625 37.5 5.796875 28.40625 5.796875 
C 19.59375 5.796875 13.796875 13.015625 13.796875 25.34375 
C 13.796875 37.671875 19.59375 45.6875 28.40625 45.6875 
C 37.59375 45.6875 43.59375 37.96875 43.59375 25.4375 
z
" id="TeXGyreHeros-Regular-112"/>
      <path d="M 48.203125 -0.5 
L 48.203125 52 
L 39.90625 52 
L 39.90625 23.03125 
C 39.90625 12.3125 34.296875 5.296875 25.59375 5.296875 
C 19 5.296875 14.796875 9.296875 14.796875 15.609375 
L 14.796875 52 
L 6.5 52 
L 6.5 12.3125 
C 6.5 3.59375 13 -2 23.203125 -2 
C 30.90625 -2 35.796875 0.6875 40.703125 7.59375 
L 40.703125 -0.5 
z
" id="TeXGyreHeros-Regular-117"/>
      <path d="M 44.40625 24.984375 
C 44.40625 35.40625 35.5 44 25 44 
C 14.203125 44 5.5 35.21875 5.5 24.984375 
C 5.5 14.671875 14.203125 5.984375 25 5.984375 
C 35.5 5.984375 44.40625 14.5625 44.40625 24.984375 
z
M 25 10 
C 16.296875 10 9.5 16.8125 9.5 24.984375 
C 9.5 33.171875 16.40625 40 25 40 
C 33.296875 40 40.40625 33.375 40.40625 24.984375 
C 40.40625 16.609375 33.296875 10 25 10 
z
" id="CMSY10-14"/>
     </defs>
     <g transform="translate(21.785289 241.796087)rotate(-90)scale(0.2 -0.2)">
      <use transform="scale(0.996264)" xlink:href="#TeXGyreHeros-Regular-84"/>
      <use transform="translate(51.40729 0)scale(0.996264)" xlink:href="#TeXGyreHeros-Regular-101"/>
      <use transform="translate(106.799544 0)scale(0.996264)" xlink:href="#TeXGyreHeros-Regular-109"/>
      <use transform="translate(190.286487 0)scale(0.996264)" xlink:href="#TeXGyreHeros-Regular-112"/>
      <use transform="translate(245.678741 0)scale(0.996264)" xlink:href="#TeXGyreHeros-Regular-101"/>
      <use transform="translate(301.070996 0)scale(0.996264)" xlink:href="#TeXGyreHeros-Regular-114"/>
      <use transform="translate(333.748459 0)scale(0.996264)" xlink:href="#TeXGyreHeros-Regular-97"/>
      <use transform="translate(389.140713 0)scale(0.996264)" xlink:href="#TeXGyreHeros-Regular-116"/>
      <use transform="translate(416.83684 0)scale(0.996264)" xlink:href="#TeXGyreHeros-Regular-117"/>
      <use transform="translate(472.229095 0)scale(0.996264)" xlink:href="#TeXGyreHeros-Regular-114"/>
      <use transform="translate(504.40841 0)scale(0.996264)" xlink:href="#TeXGyreHeros-Regular-101"/>
      <use transform="translate(559.800665 0)scale(0.996264)" xlink:href="#TeXGyreHeros-Regular-44"/>
      <use transform="translate(615.19292 0)scale(0.996264)" xlink:href="#TeXGyreHeros-Regular-91"/>
      <use transform="translate(642.889047 36.153639)scale(0.697382)" xlink:href="#CMSY10-14"/>
      <use transform="translate(678.256389 0)scale(0.996264)" xlink:href="#TeXGyreHeros-Regular-67"/>
      <use transform="translate(750.186663 0)scale(0.996264)" xlink:href="#TeXGyreHeros-Regular-93"/>
     </g>
    </g>
   </g>
   <g id="line2d_99">
    <path clip-path="url(#p0527317def)" d="M 77.126359 287.354026 
L 79.068116 284.874853 
L 81.004018 284.048462 
L 86.878992 279.090116 
L 88.766072 276.610943 
L 90.695891 275.784552 
L 96.463683 270.826206 
L 98.354648 268.347033 
L 100.220238 267.520642 
L 105.833181 262.562296 
L 107.713199 260.083123 
L 109.56029 259.256732 
L 115.085654 254.298386 
L 116.903701 251.819213 
L 118.718445 250.992822 
L 124.151084 246.034476 
L 125.959912 243.555303 
L 127.728783 242.728912 
L 133.049844 237.770566 
L 134.827588 235.291393 
L 136.584977 234.465002 
L 141.812323 229.506656 
L 143.541504 227.027483 
L 145.264644 226.201092 
L 150.399846 221.242746 
L 152.100548 218.763573 
L 153.803401 217.937182 
L 158.862143 212.978836 
L 160.528012 210.499663 
L 162.201278 209.673272 
L 167.170824 204.714926 
L 168.818213 202.235753 
L 170.464049 201.409362 
L 175.356608 196.451016 
L 176.981427 193.971843 
L 178.597739 193.145452 
L 183.419369 188.187106 
L 185.015897 185.707933 
L 186.614007 184.881542 
L 191.365537 179.923196 
L 192.947497 177.444023 
L 194.517316 176.617632 
L 199.213891 171.659286 
L 200.768677 169.180113 
L 202.32362 168.353722 
L 206.964237 163.395376 
L 208.500823 160.916203 
L 210.040631 160.089812 
L 214.632225 155.131466 
L 216.156814 152.652293 
L 217.681717 151.825902 
L 222.232965 146.867556 
L 223.749113 144.388383 
L 225.259067 143.561992 
L 229.783399 138.603646 
L 231.289242 136.124473 
L 232.792238 135.298082 
L 237.296636 130.339736 
L 238.797279 127.860563 
L 240.298935 127.034172 
L 244.79996 122.075826 
L 246.30038 119.596653 
L 247.801306 118.770262 
L 252.312257 113.811916 
L 253.819794 111.332743 
L 255.327819 110.506352 
L 259.871689 105.548006 
L 261.39249 103.068833 
L 262.916816 102.242442 
L 267.515876 97.284096 
L 269.059937 94.804923 
L 270.610281 93.978532 
L 275.305609 89.020186 
L 276.886807 86.541013 
L 278.477994 85.714622 
L 283.319114 80.756276 
L 284.958686 78.277103 
L 286.612645 77.450712 
L 291.682674 72.492366 
L 293.413601 70.013193 
L 295.168692 69.186802 
L 300.609501 64.228456 
L 302.493971 61.749283 
L 304.421495 60.922892 
L 308.433124 57.617328 
L 310.534061 55.964546 
L 312.714942 53.485373 
L 314.991006 52.658982 
L 319.930513 49.353418 
L 322.675596 47.700636 
L 325.703084 45.221463 
L 329.17132 44.395072 
L 333.474368 42.74229 
L 340.980256 41.089508 
L 343.966554 40.263117 
L 343.966554 40.263117 
" style="fill:none;stroke:#000000;stroke-linecap:square;stroke-width:0.5;"/>
   </g>
   <g id="line2d_100">
    <path clip-path="url(#p0527317def)" d="M 415.308177 287.354026 
L 415.026976 284.048462 
L 412.791356 259.256732 
L 410.475116 235.291393 
L 410.29993 234.465002 
L 408.083595 214.631618 
L 405.625263 193.971843 
L 405.407921 193.145452 
L 403.112357 176.617632 
L 400.830261 160.916203 
L 400.562216 160.089812 
L 399.738872 155.131466 
L 399.457808 152.652293 
L 399.173236 151.825902 
L 398.29803 146.867556 
L 397.998795 144.388383 
L 397.695591 143.561992 
L 396.761606 138.603646 
L 396.441681 136.124473 
L 396.117259 135.298082 
L 395.115837 130.339736 
L 394.772238 127.860563 
L 394.423336 127.034172 
L 393.34391 122.075826 
L 392.972578 119.596653 
L 392.595212 118.770262 
L 391.424129 113.811916 
L 391.02011 111.332743 
L 390.608757 110.506352 
L 389.32829 105.548006 
L 388.884935 103.068833 
L 388.432696 102.242442 
L 387.018667 97.284096 
L 386.5268 94.804923 
L 386.023799 93.978532 
L 384.442516 89.020186 
L 383.889133 86.541013 
L 383.321305 85.714622 
L 381.522527 80.756276 
L 380.887804 78.277103 
L 380.23343 77.450712 
L 378.13767 72.492366 
L 377.388797 70.013193 
L 376.611367 69.186802 
L 374.077538 64.228456 
L 373.153587 61.749283 
L 372.182345 60.922892 
L 370.070681 57.617328 
L 368.91308 55.964546 
L 367.672201 53.485373 
L 366.331326 52.658982 
L 364.867988 51.0062 
L 363.250201 49.353418 
L 361.428145 47.700636 
L 359.319735 45.221463 
L 356.766732 44.395072 
L 353.374982 42.74229 
L 346.776391 41.089508 
L 343.966554 40.263117 
L 343.966554 40.263117 
" style="fill:none;stroke:#000000;stroke-linecap:square;stroke-width:0.5;"/>
   </g>
   <g id="line2d_101">
    <defs>
     <path d="M 0 3 
C 0.795609 3 1.55874 2.683901 2.12132 2.12132 
C 2.683901 1.55874 3 0.795609 3 0 
C 3 -0.795609 2.683901 -1.55874 2.12132 -2.12132 
C 1.55874 -2.683901 0.795609 -3 0 -3 
C -0.795609 -3 -1.55874 -2.683901 -2.12132 -2.12132 
C -2.683901 -1.55874 -3 -0.795609 -3 0 
C -3 0.795609 -2.683901 1.55874 -2.12132 2.12132 
C -1.55874 2.683901 -0.795609 3 0 3 
z
" id="m1cc1a9fefe" style="stroke:#ff0000;"/>
    </defs>
    <g clip-path="url(#p0527317def)">
     <use style="fill:#ff0000;stroke:#ff0000;" x="161.791661" xlink:href="#m1cc1a9fefe" y="232.399025"/>
     <use style="fill:#ff0000;stroke:#ff0000;" x="168.940051" xlink:href="#m1cc1a9fefe" y="207.607295"/>
     <use style="fill:#ff0000;stroke:#ff0000;" x="198.470558" xlink:href="#m1cc1a9fefe" y="182.815565"/>
     <use style="fill:#ff0000;stroke:#ff0000;" x="217.75709" xlink:href="#m1cc1a9fefe" y="149.759924"/>
    </g>
   </g>
   <g id="line2d_102">
    <defs>
     <path d="M -3 3 
L 3 3 
L 3 -3 
L -3 -3 
z
" id="me882a09b50" style="stroke:#ff0000;stroke-linejoin:miter;"/>
    </defs>
    <g clip-path="url(#p0527317def)">
     <use style="fill:#ff0000;stroke:#ff0000;stroke-linejoin:miter;" x="410.417092" xlink:href="#me882a09b50" y="232.399025"/>
     <use style="fill:#ff0000;stroke:#ff0000;stroke-linejoin:miter;" x="410.278817" xlink:href="#me882a09b50" y="207.607295"/>
     <use style="fill:#ff0000;stroke:#ff0000;stroke-linejoin:miter;" x="402.225524" xlink:href="#me882a09b50" y="182.815565"/>
     <use style="fill:#ff0000;stroke:#ff0000;stroke-linejoin:miter;" x="396.386636" xlink:href="#me882a09b50" y="149.759924"/>
    </g>
   </g>
   <g id="line2d_103">
    <defs>
     <path d="M -0 7.071068 
L 4.242641 0 
L -0 -7.071068 
L -4.242641 -0 
z
" id="m41d48006df" style="stroke:#00224e;stroke-linejoin:miter;"/>
    </defs>
    <g clip-path="url(#p0527317def)">
     <use style="fill:#00224e;stroke:#00224e;stroke-linejoin:miter;" x="254.626367" xlink:href="#m41d48006df" y="207.607295"/>
    </g>
   </g>
   <g id="line2d_104">
    <defs>
     <path d="M -0 7.071068 
L 4.242641 0 
L -0 -7.071068 
L -4.242641 -0 
z
" id="m1d5ef6f157" style="stroke:#575d6d;stroke-linejoin:miter;"/>
    </defs>
    <g clip-path="url(#p0527317def)">
     <use style="fill:#575d6d;stroke:#575d6d;stroke-linejoin:miter;" x="217.75709" xlink:href="#m1d5ef6f157" y="207.607295"/>
    </g>
   </g>
   <g id="line2d_105">
    <defs>
     <path d="M -0 7.071068 
L 4.242641 0 
L -0 -7.071068 
L -4.242641 -0 
z
" id="m3e5508eae6" style="stroke:#a59c74;stroke-linejoin:miter;"/>
    </defs>
    <g clip-path="url(#p0527317def)">
     <use style="fill:#a59c74;stroke:#a59c74;stroke-linejoin:miter;" x="254.626367" xlink:href="#m3e5508eae6" y="149.759924"/>
    </g>
   </g>
   <g id="patch_3">
    <path d="M 60.217268 299.708571 
L 60.217268 27.908571 
" style="fill:none;stroke:#000000;stroke-linecap:square;stroke-linejoin:miter;stroke-width:0.6;"/>
   </g>
   <g id="patch_4">
    <path d="M 432.217268 299.708571 
L 432.217268 27.908571 
" style="fill:none;stroke:#000000;stroke-linecap:square;stroke-linejoin:miter;stroke-width:0.6;"/>
   </g>
   <g id="patch_5">
    <path d="M 60.217268 299.708571 
L 432.217268 299.708571 
" style="fill:none;stroke:#000000;stroke-linecap:square;stroke-linejoin:miter;stroke-width:0.6;"/>
   </g>
   <g id="patch_6">
    <path d="M 60.217268 27.908571 
L 432.217268 27.908571 
" style="fill:none;stroke:#000000;stroke-linecap:square;stroke-linejoin:miter;stroke-width:0.6;"/>
   </g>
  </g>
  <g id="axes_2">
   <g id="patch_7">
    <path d="M 525.217268 299.708571 
L 897.217268 299.708571 
L 897.217268 27.908571 
L 525.217268 27.908571 
z
" style="fill:#ffffff;"/>
   </g>
   <g id="matplotlib.axis_3">
    <g id="xtick_34">
     <g id="line2d_106">
      <g>
       <use style="stroke:#000000;stroke-width:0.6;" x="525.217268" xlink:href="#mefc46c7968" y="299.708571"/>
      </g>
     </g>
     <g id="line2d_107">
      <g>
       <use style="stroke:#000000;stroke-width:0.6;" x="525.217268" xlink:href="#m86ede26539" y="27.908571"/>
      </g>
     </g>
     <g id="text_11">
      <!-- $\mathdefault{0.0}$ -->
      <defs>
       <path d="M 19.09375 0 
L 19.09375 10.390625 
L 8.703125 10.390625 
L 8.703125 0 
z
" id="TeXGyreHeros-Regular-46"/>
      </defs>
      <g transform="translate(508.599592 320.710916)scale(0.24 -0.24)">
       <use transform="scale(0.996264)" xlink:href="#TeXGyreHeros-Regular-48"/>
       <use transform="translate(55.392255 0)scale(0.996264)" xlink:href="#TeXGyreHeros-Regular-46"/>
       <use transform="translate(83.088382 0)scale(0.996264)" xlink:href="#TeXGyreHeros-Regular-48"/>
      </g>
     </g>
    </g>
    <g id="xtick_35">
     <g id="line2d_108">
      <g>
       <use style="stroke:#000000;stroke-width:0.6;" x="618.217268" xlink:href="#mefc46c7968" y="299.708571"/>
      </g>
     </g>
     <g id="line2d_109">
      <g>
       <use style="stroke:#000000;stroke-width:0.6;" x="618.217268" xlink:href="#m86ede26539" y="27.908571"/>
      </g>
     </g>
     <g id="text_12">
      <!-- $\mathdefault{0.5}$ -->
      <g transform="translate(601.599592 320.710916)scale(0.24 -0.24)">
       <use transform="scale(0.996264)" xlink:href="#TeXGyreHeros-Regular-48"/>
       <use transform="translate(55.392255 0)scale(0.996264)" xlink:href="#TeXGyreHeros-Regular-46"/>
       <use transform="translate(83.088382 0)scale(0.996264)" xlink:href="#TeXGyreHeros-Regular-53"/>
      </g>
     </g>
    </g>
    <g id="xtick_36">
     <g id="line2d_110">
      <g>
       <use style="stroke:#000000;stroke-width:0.6;" x="711.217268" xlink:href="#mefc46c7968" y="299.708571"/>
      </g>
     </g>
     <g id="line2d_111">
      <g>
       <use style="stroke:#000000;stroke-width:0.6;" x="711.217268" xlink:href="#m86ede26539" y="27.908571"/>
      </g>
     </g>
     <g id="text_13">
      <!-- $\mathdefault{1.0}$ -->
      <g transform="translate(694.599592 320.710916)scale(0.24 -0.24)">
       <use transform="scale(0.996264)" xlink:href="#TeXGyreHeros-Regular-49"/>
       <use transform="translate(55.392255 0)scale(0.996264)" xlink:href="#TeXGyreHeros-Regular-46"/>
       <use transform="translate(83.088382 0)scale(0.996264)" xlink:href="#TeXGyreHeros-Regular-48"/>
      </g>
     </g>
    </g>
    <g id="xtick_37">
     <g id="line2d_112">
      <g>
       <use style="stroke:#000000;stroke-width:0.6;" x="804.217268" xlink:href="#mefc46c7968" y="299.708571"/>
      </g>
     </g>
     <g id="line2d_113">
      <g>
       <use style="stroke:#000000;stroke-width:0.6;" x="804.217268" xlink:href="#m86ede26539" y="27.908571"/>
      </g>
     </g>
     <g id="text_14">
      <!-- $\mathdefault{1.5}$ -->
      <g transform="translate(787.599592 320.710916)scale(0.24 -0.24)">
       <use transform="scale(0.996264)" xlink:href="#TeXGyreHeros-Regular-49"/>
       <use transform="translate(55.392255 0)scale(0.996264)" xlink:href="#TeXGyreHeros-Regular-46"/>
       <use transform="translate(83.088382 0)scale(0.996264)" xlink:href="#TeXGyreHeros-Regular-53"/>
      </g>
     </g>
    </g>
    <g id="xtick_38">
     <g id="line2d_114">
      <g>
       <use style="stroke:#000000;stroke-width:0.6;" x="897.217268" xlink:href="#mefc46c7968" y="299.708571"/>
      </g>
     </g>
     <g id="line2d_115">
      <g>
       <use style="stroke:#000000;stroke-width:0.6;" x="897.217268" xlink:href="#m86ede26539" y="27.908571"/>
      </g>
     </g>
     <g id="text_15">
      <!-- $\mathdefault{2.0}$ -->
      <g transform="translate(880.599592 320.710916)scale(0.24 -0.24)">
       <use transform="scale(0.996264)" xlink:href="#TeXGyreHeros-Regular-50"/>
       <use transform="translate(55.392255 0)scale(0.996264)" xlink:href="#TeXGyreHeros-Regular-46"/>
       <use transform="translate(83.088382 0)scale(0.996264)" xlink:href="#TeXGyreHeros-Regular-48"/>
      </g>
     </g>
    </g>
    <g id="xtick_39">
     <g id="line2d_116">
      <g>
       <use style="stroke:#000000;stroke-width:0.6;" x="543.817268" xlink:href="#ma89ce33300" y="299.708571"/>
      </g>
     </g>
     <g id="line2d_117">
      <g>
       <use style="stroke:#000000;stroke-width:0.6;" x="543.817268" xlink:href="#m4022d377ed" y="27.908571"/>
      </g>
     </g>
    </g>
    <g id="xtick_40">
     <g id="line2d_118">
      <g>
       <use style="stroke:#000000;stroke-width:0.6;" x="562.417268" xlink:href="#ma89ce33300" y="299.708571"/>
      </g>
     </g>
     <g id="line2d_119">
      <g>
       <use style="stroke:#000000;stroke-width:0.6;" x="562.417268" xlink:href="#m4022d377ed" y="27.908571"/>
      </g>
     </g>
    </g>
    <g id="xtick_41">
     <g id="line2d_120">
      <g>
       <use style="stroke:#000000;stroke-width:0.6;" x="581.017268" xlink:href="#ma89ce33300" y="299.708571"/>
      </g>
     </g>
     <g id="line2d_121">
      <g>
       <use style="stroke:#000000;stroke-width:0.6;" x="581.017268" xlink:href="#m4022d377ed" y="27.908571"/>
      </g>
     </g>
    </g>
    <g id="xtick_42">
     <g id="line2d_122">
      <g>
       <use style="stroke:#000000;stroke-width:0.6;" x="599.617268" xlink:href="#ma89ce33300" y="299.708571"/>
      </g>
     </g>
     <g id="line2d_123">
      <g>
       <use style="stroke:#000000;stroke-width:0.6;" x="599.617268" xlink:href="#m4022d377ed" y="27.908571"/>
      </g>
     </g>
    </g>
    <g id="xtick_43">
     <g id="line2d_124">
      <g>
       <use style="stroke:#000000;stroke-width:0.6;" x="636.817268" xlink:href="#ma89ce33300" y="299.708571"/>
      </g>
     </g>
     <g id="line2d_125">
      <g>
       <use style="stroke:#000000;stroke-width:0.6;" x="636.817268" xlink:href="#m4022d377ed" y="27.908571"/>
      </g>
     </g>
    </g>
    <g id="xtick_44">
     <g id="line2d_126">
      <g>
       <use style="stroke:#000000;stroke-width:0.6;" x="655.417268" xlink:href="#ma89ce33300" y="299.708571"/>
      </g>
     </g>
     <g id="line2d_127">
      <g>
       <use style="stroke:#000000;stroke-width:0.6;" x="655.417268" xlink:href="#m4022d377ed" y="27.908571"/>
      </g>
     </g>
    </g>
    <g id="xtick_45">
     <g id="line2d_128">
      <g>
       <use style="stroke:#000000;stroke-width:0.6;" x="674.017268" xlink:href="#ma89ce33300" y="299.708571"/>
      </g>
     </g>
     <g id="line2d_129">
      <g>
       <use style="stroke:#000000;stroke-width:0.6;" x="674.017268" xlink:href="#m4022d377ed" y="27.908571"/>
      </g>
     </g>
    </g>
    <g id="xtick_46">
     <g id="line2d_130">
      <g>
       <use style="stroke:#000000;stroke-width:0.6;" x="692.617268" xlink:href="#ma89ce33300" y="299.708571"/>
      </g>
     </g>
     <g id="line2d_131">
      <g>
       <use style="stroke:#000000;stroke-width:0.6;" x="692.617268" xlink:href="#m4022d377ed" y="27.908571"/>
      </g>
     </g>
    </g>
    <g id="xtick_47">
     <g id="line2d_132">
      <g>
       <use style="stroke:#000000;stroke-width:0.6;" x="729.817268" xlink:href="#ma89ce33300" y="299.708571"/>
      </g>
     </g>
     <g id="line2d_133">
      <g>
       <use style="stroke:#000000;stroke-width:0.6;" x="729.817268" xlink:href="#m4022d377ed" y="27.908571"/>
      </g>
     </g>
    </g>
    <g id="xtick_48">
     <g id="line2d_134">
      <g>
       <use style="stroke:#000000;stroke-width:0.6;" x="748.417268" xlink:href="#ma89ce33300" y="299.708571"/>
      </g>
     </g>
     <g id="line2d_135">
      <g>
       <use style="stroke:#000000;stroke-width:0.6;" x="748.417268" xlink:href="#m4022d377ed" y="27.908571"/>
      </g>
     </g>
    </g>
    <g id="xtick_49">
     <g id="line2d_136">
      <g>
       <use style="stroke:#000000;stroke-width:0.6;" x="767.017268" xlink:href="#ma89ce33300" y="299.708571"/>
      </g>
     </g>
     <g id="line2d_137">
      <g>
       <use style="stroke:#000000;stroke-width:0.6;" x="767.017268" xlink:href="#m4022d377ed" y="27.908571"/>
      </g>
     </g>
    </g>
    <g id="xtick_50">
     <g id="line2d_138">
      <g>
       <use style="stroke:#000000;stroke-width:0.6;" x="785.617268" xlink:href="#ma89ce33300" y="299.708571"/>
      </g>
     </g>
     <g id="line2d_139">
      <g>
       <use style="stroke:#000000;stroke-width:0.6;" x="785.617268" xlink:href="#m4022d377ed" y="27.908571"/>
      </g>
     </g>
    </g>
    <g id="xtick_51">
     <g id="line2d_140">
      <g>
       <use style="stroke:#000000;stroke-width:0.6;" x="822.817268" xlink:href="#ma89ce33300" y="299.708571"/>
      </g>
     </g>
     <g id="line2d_141">
      <g>
       <use style="stroke:#000000;stroke-width:0.6;" x="822.817268" xlink:href="#m4022d377ed" y="27.908571"/>
      </g>
     </g>
    </g>
    <g id="xtick_52">
     <g id="line2d_142">
      <g>
       <use style="stroke:#000000;stroke-width:0.6;" x="841.417268" xlink:href="#ma89ce33300" y="299.708571"/>
      </g>
     </g>
     <g id="line2d_143">
      <g>
       <use style="stroke:#000000;stroke-width:0.6;" x="841.417268" xlink:href="#m4022d377ed" y="27.908571"/>
      </g>
     </g>
    </g>
    <g id="xtick_53">
     <g id="line2d_144">
      <g>
       <use style="stroke:#000000;stroke-width:0.6;" x="860.017268" xlink:href="#ma89ce33300" y="299.708571"/>
      </g>
     </g>
     <g id="line2d_145">
      <g>
       <use style="stroke:#000000;stroke-width:0.6;" x="860.017268" xlink:href="#m4022d377ed" y="27.908571"/>
      </g>
     </g>
    </g>
    <g id="xtick_54">
     <g id="line2d_146">
      <g>
       <use style="stroke:#000000;stroke-width:0.6;" x="878.617268" xlink:href="#ma89ce33300" y="299.708571"/>
      </g>
     </g>
     <g id="line2d_147">
      <g>
       <use style="stroke:#000000;stroke-width:0.6;" x="878.617268" xlink:href="#m4022d377ed" y="27.908571"/>
      </g>
     </g>
    </g>
    <g id="text_16">
     <!-- $\tau$ [-] -->
     <defs>
      <path d="M 28.703125 37.59375 
L 45.296875 37.59375 
C 46.59375 37.59375 49.90625 37.59375 49.90625 40.796875 
C 49.90625 43 48 43 46.203125 43 
L 18.703125 43 
C 16.40625 43 13 43 8.40625 38.09375 
C 5.796875 35.203125 2.59375 29.9375 2.59375 29.34375 
C 2.59375 28.734375 3.09375 28.546875 3.703125 28.546875 
C 4.40625 28.546875 4.5 28.84375 5 29.4375 
C 10.203125 37.59375 15.40625 37.59375 17.90625 37.59375 
L 26.203125 37.59375 
L 15.796875 3.484375 
C 15.296875 1.984375 15.296875 1.78125 15.296875 1.484375 
C 15.296875 0.390625 16 -1 18 -1 
C 21.09375 -1 21.59375 1.6875 21.90625 3.1875 
z
" id="CMMI12-28"/>
      <path d="M 28.40625 24 
L 28.40625 31.1875 
L 4.59375 31.1875 
L 4.59375 24 
z
" id="TeXGyreHeros-Regular-45"/>
     </defs>
     <g transform="translate(690.846652 347.425692)scale(0.24 -0.24)">
      <use transform="scale(0.996264)" xlink:href="#CMMI12-28"/>
      <use transform="translate(81.187293 0)scale(0.996264)" xlink:href="#TeXGyreHeros-Regular-91"/>
      <use transform="translate(108.88342 0)scale(0.996264)" xlink:href="#TeXGyreHeros-Regular-45"/>
      <use transform="translate(142.05903 0)scale(0.996264)" xlink:href="#TeXGyreHeros-Regular-93"/>
     </g>
    </g>
    <g id="text_17">
     <!-- $\times\mathdefault{10^{-2}}\mathdefault{}$ -->
     <defs>
      <path d="M 38.90625 27.734375 
L 18.90625 47.59375 
C 17.703125 48.796875 17.5 49 16.703125 49 
C 15.703125 49 14.703125 48.09375 14.703125 47 
C 14.703125 46.296875 14.90625 46.09375 16 45 
L 36 24.9375 
L 16 4.890625 
C 14.90625 3.796875 14.703125 3.59375 14.703125 2.890625 
C 14.703125 1.796875 15.703125 0.890625 16.703125 0.890625 
C 17.5 0.890625 17.703125 1.09375 18.90625 2.296875 
L 38.796875 22.15625 
L 59.5 1.484375 
C 59.703125 1.390625 60.40625 0.890625 61 0.890625 
C 62.203125 0.890625 63 1.796875 63 2.890625 
C 63 3.09375 63 3.484375 62.703125 3.984375 
C 62.59375 4.1875 46.703125 19.859375 41.703125 24.9375 
L 60 43.203125 
C 60.5 43.796875 62 45.09375 62.5 45.703125 
C 62.59375 45.890625 63 46.296875 63 47 
C 63 48.09375 62.203125 49 61 49 
C 60.203125 49 59.796875 48.59375 58.703125 47.5 
z
" id="CMSY10-2"/>
      <path d="M 65.90625 23 
C 67.59375 23 69.40625 23 69.40625 25 
C 69.40625 27 67.59375 27 65.90625 27 
L 11.796875 27 
C 10.09375 27 8.296875 27 8.296875 25 
C 8.296875 23 10.09375 23 11.796875 23 
z
" id="CMSY10-0"/>
     </defs>
     <g transform="translate(829.708311 346.63192)scale(0.24 -0.24)">
      <use transform="scale(0.996264)" xlink:href="#CMSY10-2"/>
      <use transform="translate(77.487468 0)scale(0.996264)" xlink:href="#TeXGyreHeros-Regular-49"/>
      <use transform="translate(132.879722 0)scale(0.996264)" xlink:href="#TeXGyreHeros-Regular-48"/>
      <use transform="translate(188.271977 36.153639)scale(0.697382)" xlink:href="#CMSY10-0"/>
      <use transform="translate(242.51297 36.153639)scale(0.697382)" xlink:href="#TeXGyreHeros-Regular-50"/>
     </g>
    </g>
   </g>
   <g id="matplotlib.axis_4">
    <g id="ytick_17">
     <g id="line2d_148">
      <g>
       <use style="stroke:#000000;stroke-width:0.6;" x="525.217268" xlink:href="#m606eac8288" y="299.708571"/>
      </g>
     </g>
     <g id="line2d_149">
      <g>
       <use style="stroke:#000000;stroke-width:0.6;" x="897.217268" xlink:href="#m644636d186" y="299.708571"/>
      </g>
     </g>
     <g id="text_18">
      <!-- $\mathdefault{0}$ -->
      <g transform="translate(508.423127 308.459744)scale(0.24 -0.24)">
       <use transform="scale(0.996264)" xlink:href="#TeXGyreHeros-Regular-48"/>
      </g>
     </g>
    </g>
    <g id="ytick_18">
     <g id="line2d_150">
      <g>
       <use style="stroke:#000000;stroke-width:0.6;" x="525.217268" xlink:href="#m606eac8288" y="228.182256"/>
      </g>
     </g>
     <g id="line2d_151">
      <g>
       <use style="stroke:#000000;stroke-width:0.6;" x="897.217268" xlink:href="#m644636d186" y="228.182256"/>
      </g>
     </g>
     <g id="text_19">
      <!-- $\mathdefault{1}$ -->
      <g transform="translate(508.423127 236.933428)scale(0.24 -0.24)">
       <use transform="scale(0.996264)" xlink:href="#TeXGyreHeros-Regular-49"/>
      </g>
     </g>
    </g>
    <g id="ytick_19">
     <g id="line2d_152">
      <g>
       <use style="stroke:#000000;stroke-width:0.6;" x="525.217268" xlink:href="#m606eac8288" y="156.65594"/>
      </g>
     </g>
     <g id="line2d_153">
      <g>
       <use style="stroke:#000000;stroke-width:0.6;" x="897.217268" xlink:href="#m644636d186" y="156.65594"/>
      </g>
     </g>
     <g id="text_20">
      <!-- $\mathdefault{2}$ -->
      <g transform="translate(508.423127 165.407112)scale(0.24 -0.24)">
       <use transform="scale(0.996264)" xlink:href="#TeXGyreHeros-Regular-50"/>
      </g>
     </g>
    </g>
    <g id="ytick_20">
     <g id="line2d_154">
      <g>
       <use style="stroke:#000000;stroke-width:0.6;" x="525.217268" xlink:href="#m606eac8288" y="85.129624"/>
      </g>
     </g>
     <g id="line2d_155">
      <g>
       <use style="stroke:#000000;stroke-width:0.6;" x="897.217268" xlink:href="#m644636d186" y="85.129624"/>
      </g>
     </g>
     <g id="text_21">
      <!-- $\mathdefault{3}$ -->
      <g transform="translate(508.423127 93.880796)scale(0.24 -0.24)">
       <use transform="scale(0.996264)" xlink:href="#TeXGyreHeros-Regular-51"/>
      </g>
     </g>
    </g>
    <g id="ytick_21">
     <g id="line2d_156">
      <g>
       <use style="stroke:#000000;stroke-width:0.6;" x="525.217268" xlink:href="#ma1a35588f8" y="285.403308"/>
      </g>
     </g>
     <g id="line2d_157">
      <g>
       <use style="stroke:#000000;stroke-width:0.6;" x="897.217268" xlink:href="#m6c6b216ef1" y="285.403308"/>
      </g>
     </g>
    </g>
    <g id="ytick_22">
     <g id="line2d_158">
      <g>
       <use style="stroke:#000000;stroke-width:0.6;" x="525.217268" xlink:href="#ma1a35588f8" y="271.098045"/>
      </g>
     </g>
     <g id="line2d_159">
      <g>
       <use style="stroke:#000000;stroke-width:0.6;" x="897.217268" xlink:href="#m6c6b216ef1" y="271.098045"/>
      </g>
     </g>
    </g>
    <g id="ytick_23">
     <g id="line2d_160">
      <g>
       <use style="stroke:#000000;stroke-width:0.6;" x="525.217268" xlink:href="#ma1a35588f8" y="256.792782"/>
      </g>
     </g>
     <g id="line2d_161">
      <g>
       <use style="stroke:#000000;stroke-width:0.6;" x="897.217268" xlink:href="#m6c6b216ef1" y="256.792782"/>
      </g>
     </g>
    </g>
    <g id="ytick_24">
     <g id="line2d_162">
      <g>
       <use style="stroke:#000000;stroke-width:0.6;" x="525.217268" xlink:href="#ma1a35588f8" y="242.487519"/>
      </g>
     </g>
     <g id="line2d_163">
      <g>
       <use style="stroke:#000000;stroke-width:0.6;" x="897.217268" xlink:href="#m6c6b216ef1" y="242.487519"/>
      </g>
     </g>
    </g>
    <g id="ytick_25">
     <g id="line2d_164">
      <g>
       <use style="stroke:#000000;stroke-width:0.6;" x="525.217268" xlink:href="#ma1a35588f8" y="213.876993"/>
      </g>
     </g>
     <g id="line2d_165">
      <g>
       <use style="stroke:#000000;stroke-width:0.6;" x="897.217268" xlink:href="#m6c6b216ef1" y="213.876993"/>
      </g>
     </g>
    </g>
    <g id="ytick_26">
     <g id="line2d_166">
      <g>
       <use style="stroke:#000000;stroke-width:0.6;" x="525.217268" xlink:href="#ma1a35588f8" y="199.571729"/>
      </g>
     </g>
     <g id="line2d_167">
      <g>
       <use style="stroke:#000000;stroke-width:0.6;" x="897.217268" xlink:href="#m6c6b216ef1" y="199.571729"/>
      </g>
     </g>
    </g>
    <g id="ytick_27">
     <g id="line2d_168">
      <g>
       <use style="stroke:#000000;stroke-width:0.6;" x="525.217268" xlink:href="#ma1a35588f8" y="185.266466"/>
      </g>
     </g>
     <g id="line2d_169">
      <g>
       <use style="stroke:#000000;stroke-width:0.6;" x="897.217268" xlink:href="#m6c6b216ef1" y="185.266466"/>
      </g>
     </g>
    </g>
    <g id="ytick_28">
     <g id="line2d_170">
      <g>
       <use style="stroke:#000000;stroke-width:0.6;" x="525.217268" xlink:href="#ma1a35588f8" y="170.961203"/>
      </g>
     </g>
     <g id="line2d_171">
      <g>
       <use style="stroke:#000000;stroke-width:0.6;" x="897.217268" xlink:href="#m6c6b216ef1" y="170.961203"/>
      </g>
     </g>
    </g>
    <g id="ytick_29">
     <g id="line2d_172">
      <g>
       <use style="stroke:#000000;stroke-width:0.6;" x="525.217268" xlink:href="#ma1a35588f8" y="142.350677"/>
      </g>
     </g>
     <g id="line2d_173">
      <g>
       <use style="stroke:#000000;stroke-width:0.6;" x="897.217268" xlink:href="#m6c6b216ef1" y="142.350677"/>
      </g>
     </g>
    </g>
    <g id="ytick_30">
     <g id="line2d_174">
      <g>
       <use style="stroke:#000000;stroke-width:0.6;" x="525.217268" xlink:href="#ma1a35588f8" y="128.045414"/>
      </g>
     </g>
     <g id="line2d_175">
      <g>
       <use style="stroke:#000000;stroke-width:0.6;" x="897.217268" xlink:href="#m6c6b216ef1" y="128.045414"/>
      </g>
     </g>
    </g>
    <g id="ytick_31">
     <g id="line2d_176">
      <g>
       <use style="stroke:#000000;stroke-width:0.6;" x="525.217268" xlink:href="#ma1a35588f8" y="113.74015"/>
      </g>
     </g>
     <g id="line2d_177">
      <g>
       <use style="stroke:#000000;stroke-width:0.6;" x="897.217268" xlink:href="#m6c6b216ef1" y="113.74015"/>
      </g>
     </g>
    </g>
    <g id="ytick_32">
     <g id="line2d_178">
      <g>
       <use style="stroke:#000000;stroke-width:0.6;" x="525.217268" xlink:href="#ma1a35588f8" y="99.434887"/>
      </g>
     </g>
     <g id="line2d_179">
      <g>
       <use style="stroke:#000000;stroke-width:0.6;" x="897.217268" xlink:href="#m6c6b216ef1" y="99.434887"/>
      </g>
     </g>
    </g>
    <g id="ytick_33">
     <g id="line2d_180">
      <g>
       <use style="stroke:#000000;stroke-width:0.6;" x="525.217268" xlink:href="#ma1a35588f8" y="70.824361"/>
      </g>
     </g>
     <g id="line2d_181">
      <g>
       <use style="stroke:#000000;stroke-width:0.6;" x="897.217268" xlink:href="#m6c6b216ef1" y="70.824361"/>
      </g>
     </g>
    </g>
    <g id="ytick_34">
     <g id="line2d_182">
      <g>
       <use style="stroke:#000000;stroke-width:0.6;" x="525.217268" xlink:href="#ma1a35588f8" y="56.519098"/>
      </g>
     </g>
     <g id="line2d_183">
      <g>
       <use style="stroke:#000000;stroke-width:0.6;" x="897.217268" xlink:href="#m6c6b216ef1" y="56.519098"/>
      </g>
     </g>
    </g>
    <g id="ytick_35">
     <g id="line2d_184">
      <g>
       <use style="stroke:#000000;stroke-width:0.6;" x="525.217268" xlink:href="#ma1a35588f8" y="42.213835"/>
      </g>
     </g>
     <g id="line2d_185">
      <g>
       <use style="stroke:#000000;stroke-width:0.6;" x="897.217268" xlink:href="#m6c6b216ef1" y="42.213835"/>
      </g>
     </g>
    </g>
    <g id="text_22">
     <!-- V$_D^*$ [-] -->
     <defs>
      <path d="M 64.5 73 
L 54.59375 73 
L 34.40625 11.203125 
L 13 73 
L 3 73 
L 29.203125 0 
L 39.203125 0 
z
" id="TeXGyreHeros-Regular-86"/>
      <path d="M 27.5 43.15625 
C 27.59375 44.578125 27.59375 47 25 47 
C 23.40625 47 22.09375 45.6875 22.40625 44.375 
L 22.40625 43.046875 
L 23.796875 27.1875 
L 11 36.703125 
C 10.09375 37.21875 9.90625 37.421875 9.203125 37.421875 
C 7.796875 37.421875 6.5 35.984375 6.5 34.5625 
C 6.5 32.921875 7.5 32.515625 8.5 32 
L 22.703125 25.046875 
L 8.90625 18.1875 
C 7.296875 17.375 6.5 16.953125 6.5 15.421875 
C 6.5 13.890625 7.796875 12.5625 9.203125 12.5625 
C 9.90625 12.5625 10.09375 12.5625 12.59375 14.5 
L 23.796875 22.796875 
L 22.296875 5.609375 
C 22.296875 3.5 24.09375 3 24.90625 3 
C 26.09375 3 27.59375 3.6875 27.59375 5.609375 
L 26.09375 22.796875 
L 38.90625 13.28125 
C 39.796875 12.765625 40 12.5625 40.703125 12.5625 
C 42.09375 12.5625 43.40625 14 43.40625 15.421875 
C 43.40625 16.953125 42.5 17.46875 41.296875 18.078125 
C 35.296875 21.15625 35.09375 21.15625 27.203125 24.9375 
L 41 31.796875 
C 42.59375 32.609375 43.40625 33.015625 43.40625 34.5625 
C 43.40625 36.09375 42.09375 37.421875 40.703125 37.421875 
C 40 37.421875 39.796875 37.421875 37.296875 35.484375 
L 26.09375 27.1875 
z
" id="CMSY10-3"/>
      <path d="M 70.90625 48.859375 
C 70.90625 62.59375 62.5 73 47.59375 73 
L 19.40625 73 
L 3.90625 0 
L 32.09375 0 
C 53.796875 0 70.90625 21.3125 70.90625 48.859375 
z
M 61.296875 48.0625 
C 61.296875 25.125 49.59375 8.1875 32.203125 8.1875 
L 15 8.1875 
L 27.09375 64.796875 
L 44.203125 64.796875 
C 54.90625 64.796875 61.296875 58.484375 61.296875 48.0625 
z
" id="TeXGyreHeros-Italic-68"/>
     </defs>
     <g transform="translate(497.064674 192.155236)rotate(-90)scale(0.24 -0.24)">
      <use transform="scale(0.996264)" xlink:href="#TeXGyreHeros-Regular-86"/>
      <use transform="translate(66.450791 36.153639)scale(0.697382)" xlink:href="#CMSY10-3"/>
      <use transform="translate(66.450791 -30.660156)scale(0.697382)" xlink:href="#TeXGyreHeros-Italic-68"/>
      <use transform="translate(146.076967 0)scale(0.996264)" xlink:href="#TeXGyreHeros-Regular-91"/>
      <use transform="translate(173.773095 0)scale(0.996264)" xlink:href="#TeXGyreHeros-Regular-45"/>
      <use transform="translate(206.948704 0)scale(0.996264)" xlink:href="#TeXGyreHeros-Regular-93"/>
     </g>
    </g>
    <g id="text_23">
     <!-- $\times\mathdefault{10^{-2}}\mathdefault{}$ -->
     <g transform="translate(525.217268 24.908571)scale(0.24 -0.24)">
      <use transform="scale(0.996264)" xlink:href="#CMSY10-2"/>
      <use transform="translate(77.487468 0)scale(0.996264)" xlink:href="#TeXGyreHeros-Regular-49"/>
      <use transform="translate(132.879722 0)scale(0.996264)" xlink:href="#TeXGyreHeros-Regular-48"/>
      <use transform="translate(188.271977 36.153639)scale(0.697382)" xlink:href="#CMSY10-0"/>
      <use transform="translate(242.51297 36.153639)scale(0.697382)" xlink:href="#TeXGyreHeros-Regular-50"/>
     </g>
    </g>
   </g>
   <g id="line2d_186">
    <path clip-path="url(#pd21568c81d)" d="M 525.21727 298.993304 
L 530.662036 286.271226 
L 540.596348 263.317756 
L 549.351087 243.6498 
L 556.967374 227.050592 
L 564.602986 210.952635 
L 571.286061 197.358449 
L 578.057705 184.106701 
L 583.495845 173.881497 
L 589.493659 163.073549 
L 594.733387 154.067449 
L 600.400251 144.821664 
L 604.951548 137.793821 
L 609.778364 130.752182 
L 614.897377 123.773097 
L 618.481076 119.200291 
L 622.207983 114.727679 
L 626.083821 110.389693 
L 630.11454 106.223123 
L 634.306331 102.266092 
L 638.66563 98.556038 
L 643.19913 95.127895 
L 647.913793 92.011736 
L 652.816858 89.229716 
L 657.915855 86.794128 
L 663.218612 84.703222 
L 668.733271 82.945264 
L 674.468302 81.504139 
L 680.43251 80.350781 
L 686.635053 79.441362 
L 693.085455 78.738641 
L 699.793621 78.213041 
L 710.361822 77.660798 
L 721.569783 77.273175 
L 733.456231 77.111948 
L 833.345976 76.905861 
L 865.057433 76.922796 
L 892.760762 76.80886 
L 922.034944 77.037119 
L 922.034944 77.037119 
" style="fill:none;stroke:#00224e;stroke-linecap:square;stroke-width:1.5;"/>
   </g>
   <g id="line2d_187">
    <path clip-path="url(#pd21568c81d)" d="M 525.21727 298.993307 
L 529.693312 294.9735 
L 539.161282 286.546128 
L 546.258274 280.510623 
L 552.898513 275.127027 
L 559.555601 270.004358 
L 566.176876 265.196828 
L 572.197521 261.083938 
L 578.057705 257.323116 
L 584.648872 253.383097 
L 590.76535 250.00266 
L 596.108745 247.26575 
L 601.887726 244.529695 
L 608.137803 241.826664 
L 614.897377 239.192844 
L 620.326276 237.287274 
L 626.083821 235.461295 
L 632.189906 233.732602 
L 638.66563 232.117692 
L 645.533371 230.63032 
L 652.816858 229.279452 
L 660.541262 228.071444 
L 668.733271 227.01207 
L 677.421195 226.102016 
L 686.635053 225.334802 
L 699.793621 224.500175 
L 714.024859 223.871386 
L 729.416209 223.442957 
L 754.887408 223.035014 
L 783.535814 222.812989 
L 845.659081 222.664496 
L 922.034944 222.637436 
L 922.034944 222.637436 
" style="fill:none;stroke:#575d6d;stroke-linecap:square;stroke-width:1.5;"/>
   </g>
   <g id="line2d_188">
    <path clip-path="url(#pd21568c81d)" d="M 525.21727 298.993308 
L 528.825552 297.542238 
L 536.026061 294.380578 
L 554.574232 285.931558 
L 578.057705 275.325674 
L 596.108745 267.403149 
L 613.157502 260.150195 
L 630.11454 253.180249 
L 645.533371 247.061419 
L 660.541262 241.31044 
L 677.421195 235.086118 
L 693.085455 229.541965 
L 710.361822 223.686181 
L 725.454566 218.79217 
L 741.777651 213.730396 
L 759.431372 208.52378 
L 773.60982 204.541035 
L 788.646579 200.507731 
L 804.593606 196.440597 
L 821.506008 192.358299 
L 839.442222 188.281172 
L 858.464229 184.230732 
L 878.637757 180.22889 
L 900.032514 176.296926 
L 922.034944 172.571668 
L 922.034944 172.571668 
" style="fill:none;stroke:#a59c74;stroke-linecap:square;stroke-width:1.5;"/>
   </g>
   <g id="patch_8">
    <path d="M 525.217268 299.708571 
L 525.217268 27.908571 
" style="fill:none;stroke:#000000;stroke-linecap:square;stroke-linejoin:miter;stroke-width:0.6;"/>
   </g>
   <g id="patch_9">
    <path d="M 897.217268 299.708571 
L 897.217268 27.908571 
" style="fill:none;stroke:#000000;stroke-linecap:square;stroke-linejoin:miter;stroke-width:0.6;"/>
   </g>
   <g id="patch_10">
    <path d="M 525.217268 299.708571 
L 897.217268 299.708571 
" style="fill:none;stroke:#000000;stroke-linecap:square;stroke-linejoin:miter;stroke-width:0.6;"/>
   </g>
   <g id="patch_11">
    <path d="M 525.217268 27.908571 
L 897.217268 27.908571 
" style="fill:none;stroke:#000000;stroke-linecap:square;stroke-linejoin:miter;stroke-width:0.6;"/>
   </g>
  </g>
 </g>
 <defs>
  <clipPath id="p0527317def">
   <rect height="271.8" width="372" x="60.217268" y="27.908571"/>
  </clipPath>
  <clipPath id="pd21568c81d">
   <rect height="271.8" width="372" x="525.217268" y="27.908571"/>
  </clipPath>
 </defs>
</svg>
